<svg width="486" height="486" viewBox="0 0 486 486" fill="none" xmlns="http://www.w3.org/2000/svg">
<g clip-path="url(#clip0_1_255)">
<path d="M118.238 121.268C122.259 105.187 132.502 91.3615 146.716 82.8333C160.93 74.3051 177.95 71.7727 194.031 75.7931L363.806 118.238C379.887 122.258 393.712 132.502 402.24 146.716C410.768 160.93 413.301 177.95 409.28 194.031L366.835 363.805C362.815 379.887 352.571 393.712 338.357 402.24C324.143 410.768 307.124 413.301 291.043 409.28L121.268 366.835C105.187 362.815 91.3616 352.571 82.8334 338.357C74.3052 324.143 71.7728 307.124 75.7932 291.043L118.238 121.268Z" fill="url(#paint0_linear_1_255)"/>
<path d="M301.776 196.686C300.069 193.839 297.3 191.788 294.08 190.983C290.86 190.178 287.451 190.685 284.605 192.393C281.759 194.101 279.707 196.869 278.902 200.089C278.097 203.31 278.604 206.718 280.312 209.564L310.277 259.472L260.351 289.407C257.504 291.115 255.453 293.883 254.648 297.103C253.843 300.324 254.35 303.732 256.058 306.578C257.765 309.425 260.534 311.476 263.754 312.281C266.975 313.086 270.383 312.579 273.229 310.871L333.863 274.491C335.274 273.647 336.505 272.533 337.484 271.213C338.464 269.892 339.174 268.391 339.572 266.796C339.971 265.201 340.051 263.543 339.808 261.917C339.565 260.291 339.004 258.729 338.156 257.32L301.776 196.686ZM224.723 195.667C227.566 193.958 229.614 191.19 230.416 187.971C231.218 184.753 230.709 181.347 229.001 178.504C227.292 175.661 224.524 173.613 221.305 172.811C218.087 172.008 214.681 172.518 211.838 174.226L151.204 210.606C148.362 212.312 146.314 215.077 145.51 218.292C144.706 221.508 145.212 224.911 146.917 227.753L183.297 288.388C185.005 291.234 187.773 293.285 190.994 294.09C194.214 294.895 197.622 294.388 200.469 292.681C203.315 290.973 205.366 288.204 206.171 284.984C206.977 281.764 206.469 278.355 204.762 275.509L174.797 225.601L224.723 195.667Z" fill="url(#paint1_linear_1_255)"/>
</g>
<defs>
<linearGradient id="paint0_linear_1_255" x1="205.551" y1="78.6733" x2="293.832" y2="415.131" gradientUnits="userSpaceOnUse">
<stop stop-color="#964CF0"/>
<stop offset="0.5" stop-color="#7134BA"/>
<stop offset="1" stop-color="#964CF0"/>
</linearGradient>
<linearGradient id="paint1_linear_1_255" x1="205.526" y1="173.808" x2="226.528" y2="378.102" gradientUnits="userSpaceOnUse">
<stop stop-color="#FDFDFD"/>
<stop offset="1" stop-color="#F9DCFA"/>
</linearGradient>
<clipPath id="clip0_1_255">
<rect width="400" height="400" fill="white" transform="translate(97.0172) rotate(14.0367)"/>
</clipPath>
</defs>
</svg>
