<svg width="64" height="64" viewBox="0 0 64 64" fill="none" xmlns="http://www.w3.org/2000/svg">
<path d="M7.4925 13.8559C7.374 10.4484 10.0285 7.3064 13.617 7.3064H50.387C53.9755 7.3064 56.63 10.4484 56.5115 13.8559C56.3975 17.1289 56.5455 21.3689 57.6125 24.8259C58.683 28.2939 60.488 30.4854 63.4445 30.7674V33.9609C60.488 34.2429 58.683 36.4344 57.6125 39.9024C56.5455 43.3594 56.3975 47.5994 56.5115 50.8724C56.63 54.2799 53.9755 57.4214 50.387 57.4214H13.617C10.0285 57.4214 7.374 54.2794 7.4925 50.8724C7.6065 47.5994 7.4585 43.3594 6.391 39.9024C5.321 36.4349 3.511 34.2429 0.554504 33.9609V30.7674C3.511 30.4859 5.321 28.2939 6.391 24.8259C7.4585 21.3689 7.606 17.1289 7.4925 13.8559Z" fill="url(#paint0_linear_5_50)"/>
<g filter="url(#filter0_d_5_50)">
<path d="M33.5549 45.8682C39.3644 45.8682 42.8652 43.0237 42.8652 38.332C42.8652 34.7855 40.3673 32.218 36.6583 31.8116V31.6638C39.3833 31.2205 41.5216 28.69 41.5216 25.8639C41.5216 21.8371 38.3426 19.2141 33.4981 19.2141H22.5982V45.8682H33.5549ZM26.8371 22.5944H32.4763C35.5419 22.5944 37.2828 23.9612 37.2828 26.4364C37.2828 29.0779 35.258 30.5555 31.5869 30.5555H26.8371V22.5944ZM26.8371 42.4879V33.7141H32.4384C36.4501 33.7141 38.5317 35.1917 38.5317 38.0733C38.5317 40.9548 36.507 42.4879 32.6844 42.4879H26.8371Z" fill="url(#paint1_linear_5_50)"/>
</g>
<defs>
<filter id="filter0_d_5_50" x="22.1069" y="18.8456" width="21.2496" height="27.6367" filterUnits="userSpaceOnUse" color-interpolation-filters="sRGB">
<feFlood flood-opacity="0" result="BackgroundImageFix"/>
<feColorMatrix in="SourceAlpha" type="matrix" values="0 0 0 0 0 0 0 0 0 0 0 0 0 0 0 0 0 0 127 0" result="hardAlpha"/>
<feOffset dy="0.12283"/>
<feGaussianBlur stdDeviation="0.24566"/>
<feColorMatrix type="matrix" values="0 0 0 0 0 0 0 0 0 0 0 0 0 0 0 0 0 0 0.15 0"/>
<feBlend mode="normal" in2="BackgroundImageFix" result="effect1_dropShadow_5_50"/>
<feBlend mode="normal" in="SourceGraphic" in2="effect1_dropShadow_5_50" result="shape"/>
</filter>
<linearGradient id="paint0_linear_5_50" x1="9.89979" y1="8.63271" x2="64.8541" y2="52.256" gradientUnits="userSpaceOnUse">
<stop stop-color="#9013FE"/>
<stop offset="1" stop-color="#6610F2"/>
</linearGradient>
<linearGradient id="paint1_linear_5_50" x1="24.5158" y1="20.9681" x2="36.7988" y2="41.7424" gradientUnits="userSpaceOnUse">
<stop stop-color="white"/>
<stop offset="1" stop-color="#F1E5FC"/>
</linearGradient>
</defs>
</svg>
