<svg width="63" height="62" viewBox="0 0 63 62" fill="none" xmlns="http://www.w3.org/2000/svg">
<circle cx="31.5" cy="31" r="30" fill="#101010" stroke="#964CF0" stroke-width="2"/>
<path d="M44.8339 37.5605V41.5605C44.8354 41.9318 44.7593 42.2993 44.6106 42.6396C44.4618 42.9798 44.2436 43.2852 43.97 43.5363C43.6964 43.7873 43.3733 43.9784 43.0216 44.0974C42.6698 44.2164 42.2971 44.2605 41.9272 44.2271C37.8243 43.7813 33.8832 42.3793 30.4206 40.1338C27.199 38.0867 24.4677 35.3554 22.4206 32.1338C20.1672 28.6554 18.7649 24.6951 18.3272 20.5738C18.2939 20.2051 18.3377 19.8335 18.4559 19.4826C18.5741 19.1318 18.764 18.8094 19.0136 18.5359C19.2632 18.2625 19.567 18.0441 19.9056 17.8945C20.2443 17.7449 20.6103 17.6675 20.9806 17.6671H24.9806C25.6276 17.6608 26.255 17.8899 26.7456 18.3118C27.2362 18.7338 27.5567 19.3197 27.6472 19.9605C27.8161 21.2405 28.1292 22.4974 28.5806 23.7071C28.76 24.1844 28.7988 24.703 28.6924 25.2016C28.5861 25.7002 28.339 26.1579 27.9806 26.5205L26.2872 28.2138C28.1853 31.5518 30.9492 34.3157 34.2872 36.2138L35.9806 34.5205C36.3431 34.162 36.8008 33.9149 37.2994 33.8086C37.798 33.7022 38.3167 33.7411 38.7939 33.9205C40.0036 34.3719 41.2605 34.685 42.5406 34.8538C43.1883 34.9452 43.7798 35.2714 44.2026 35.7704C44.6254 36.2695 44.8501 36.9066 44.8339 37.5605Z" stroke="#964CF0" stroke-width="2" stroke-linecap="round" stroke-linejoin="round"/>
</svg>
