<svg width="63" height="62" viewBox="0 0 63 62" fill="none" xmlns="http://www.w3.org/2000/svg">
<circle cx="31.5" cy="31" r="30" fill="#101010" stroke="#964CF0" stroke-width="2"/>
<path d="M38.166 17.667H24.8327C21.1508 17.667 18.166 20.6518 18.166 24.3337V37.667C18.166 41.3489 21.1508 44.3337 24.8327 44.3337H38.166C41.8479 44.3337 44.8327 41.3489 44.8327 37.667V24.3337C44.8327 20.6518 41.8479 17.667 38.166 17.667Z" stroke="#964CF0" stroke-width="2" stroke-linecap="round" stroke-linejoin="round"/>
<path d="M36.8336 30.1604C36.9981 31.2701 36.8086 32.4034 36.2919 33.3991C35.7753 34.3948 34.9578 35.2023 33.9558 35.7066C32.9537 36.211 31.8182 36.3865 30.7106 36.2083C29.6031 36.0301 28.5799 35.5072 27.7867 34.714C26.9935 33.9207 26.4706 32.8976 26.2924 31.79C26.1141 30.6825 26.2897 29.5469 26.794 28.5449C27.2984 27.5429 28.1058 26.7254 29.1016 26.2087C30.0973 25.6921 31.2306 25.5025 32.3403 25.6671C33.4722 25.8349 34.5201 26.3624 35.3292 27.1715C36.1383 27.9806 36.6657 29.0285 36.8336 30.1604Z" stroke="#964CF0" stroke-width="2" stroke-linecap="round" stroke-linejoin="round"/>
<path d="M38.834 23.667H38.8473" stroke="#964CF0" stroke-width="2" stroke-linecap="round" stroke-linejoin="round"/>
</svg>
