<svg width="64" height="64" viewBox="0 0 64 64" fill="none" xmlns="http://www.w3.org/2000/svg">
<path d="M31.9988 37.6998C35.1469 37.6998 37.6988 35.1478 37.6988 31.9998C37.6988 28.8518 35.1469 26.2998 31.9988 26.2998C28.8508 26.2998 26.2988 28.8518 26.2988 31.9998C26.2988 35.1478 28.8508 37.6998 31.9988 37.6998Z" fill="#0FAFFF"/>
<path d="M53.6492 22.5998C52.5492 22.1998 51.3992 21.7998 50.1992 21.4498C50.4992 20.2498 50.7492 19.0498 50.9492 17.8998C51.9992 11.2998 50.8492 6.6498 47.6492 4.8498C46.6992 4.2998 45.6492 4.0498 44.4492 4.0498C40.9492 4.0498 36.4992 6.6498 31.9992 10.9998C27.4992 6.6498 23.0492 4.0498 19.5492 4.0498C18.3492 4.0498 17.2992 4.2998 16.3492 4.8498C13.1492 6.6998 11.9992 11.3498 13.0492 17.8998C13.2492 19.0498 13.4992 20.2498 13.7992 21.4498C12.5992 21.7998 11.4492 22.1498 10.3492 22.5998C4.09922 24.9998 0.699219 28.2998 0.699219 31.9998C0.699219 35.6998 4.14922 38.9998 10.3492 41.3998C11.4492 41.7998 12.5992 42.1998 13.7992 42.5498C13.4992 43.7498 13.2492 44.9498 13.0492 46.0998C11.9992 52.6998 13.1492 57.3498 16.3492 59.1498C17.2992 59.6998 18.3492 59.9498 19.5492 59.9498C23.0992 59.9498 27.5492 57.3498 31.9992 52.9998C36.4992 57.3498 40.9492 59.9498 44.4492 59.9498C45.6492 59.9498 46.6992 59.6998 47.6492 59.1498C50.8492 57.2998 51.9992 52.6498 50.9492 46.0998C50.7492 44.9498 50.4992 43.7498 50.1992 42.5498C51.3992 42.1998 52.5492 41.8498 53.6492 41.3998C59.8992 38.9998 63.2992 35.6998 63.2992 31.9998C63.2992 28.2998 59.8992 24.9998 53.6492 22.5998ZM46.2492 7.3498C48.2992 8.5498 48.9992 12.2498 48.1492 17.4998C47.9992 18.5498 47.7492 19.6498 47.4492 20.7998C44.8492 20.1998 42.0992 19.7998 39.1992 19.5498C37.4992 17.1498 35.7492 14.9998 33.9992 13.0498C37.6992 9.3998 41.4492 6.8998 44.4992 6.8998C45.1492 6.8998 45.7492 7.0498 46.2492 7.3498ZM40.6492 36.9998C39.7492 38.5998 38.6992 40.1998 37.5992 41.7998C35.7492 41.9498 33.8992 41.9998 31.9992 41.9998C30.0492 41.9998 28.1992 41.9498 26.3992 41.7998C25.2992 40.1998 24.2992 38.5998 23.3992 36.9998C22.4492 35.3498 21.5492 33.6498 20.7492 31.9998C21.5492 30.3498 22.4492 28.6498 23.3992 26.9998C24.2992 25.3998 25.3492 23.7998 26.4492 22.1998C28.2992 22.0498 30.1492 21.9998 32.0492 21.9998C33.9992 21.9998 35.8492 22.0498 37.6492 22.1998C38.7492 23.7998 39.7492 25.3998 40.6492 26.9998C41.5992 28.6498 42.4992 30.3498 43.2992 31.9998C42.4492 33.6498 41.5992 35.2998 40.6492 36.9998ZM44.7992 35.3498C45.5492 37.0998 46.1492 38.7998 46.6992 40.4998C44.9992 40.8998 43.1992 41.1998 41.2992 41.4498C41.8992 40.4998 42.5492 39.4998 43.0992 38.4498C43.6992 37.3998 44.2492 36.3498 44.7992 35.3498ZM31.9992 48.8998C30.7992 47.5998 29.6492 46.1998 28.5492 44.7498C29.6992 44.7998 30.8492 44.8498 31.9992 44.8498C33.1492 44.8498 34.2992 44.7998 35.4492 44.7498C34.3492 46.1998 33.1992 47.5998 31.9992 48.8998ZM22.6992 41.3998C20.7992 41.1498 18.9992 40.8498 17.2992 40.4498C17.8492 38.7998 18.4492 37.0498 19.1992 35.2998C19.7492 36.2998 20.2992 37.3498 20.8992 38.3498C21.4992 39.4498 22.0992 40.3998 22.6992 41.3998ZM19.1992 28.6498C18.4492 26.8998 17.8492 25.1998 17.2992 23.4998C18.9992 23.0998 20.7992 22.7998 22.6992 22.5498C22.0992 23.4998 21.4492 24.4998 20.8992 25.5498C20.2992 26.5998 19.7492 27.6498 19.1992 28.6498ZM31.9992 15.0998C33.1992 16.3998 34.3492 17.7998 35.4492 19.2498C34.2992 19.1998 33.1492 19.1498 31.9992 19.1498C30.8492 19.1498 29.6992 19.1998 28.5492 19.2498C29.6492 17.7998 30.7992 16.3998 31.9992 15.0998ZM43.0992 25.5998L41.2992 22.5998C43.1992 22.8498 44.9992 23.1498 46.6992 23.5498C46.1492 25.1998 45.5492 26.9498 44.7992 28.6998C44.2492 27.6498 43.6992 26.5998 43.0992 25.5998ZM15.8492 17.4998C14.9992 12.2498 15.6992 8.5498 17.7492 7.3498C18.2492 7.0498 18.8492 6.8998 19.4992 6.8998C22.4992 6.8998 26.2492 9.3498 29.9992 13.0498C28.2492 14.9498 26.4992 17.1498 24.7992 19.5498C21.8992 19.7998 19.1492 20.2498 16.5492 20.7998C16.2492 19.6498 16.0492 18.5498 15.8492 17.4998ZM3.49922 31.9998C3.49922 29.6498 6.34922 27.1498 11.3492 25.2998C12.3492 24.8998 13.4492 24.5498 14.5492 24.2498C15.3492 26.7498 16.3492 29.3998 17.5492 32.0498C16.3492 34.6998 15.2992 37.2998 14.5492 39.7998C7.64922 37.7998 3.49922 34.7998 3.49922 31.9998ZM17.7492 56.6498C15.6992 55.4498 14.9992 51.7498 15.8492 46.4998C15.9992 45.4498 16.2492 44.3498 16.5492 43.1998C19.1492 43.7998 21.8992 44.1998 24.7992 44.4498C26.4992 46.8498 28.2492 48.9998 29.9992 50.9498C26.2992 54.5998 22.5492 57.0998 19.4992 57.0998C18.8492 57.0998 18.2492 56.9498 17.7492 56.6498ZM48.1492 46.4998C48.9992 51.7498 48.2992 55.4498 46.2492 56.6498C45.7492 56.9498 45.1492 57.0998 44.4992 57.0998C41.4992 57.0998 37.7492 54.6498 33.9992 50.9498C35.7492 49.0498 37.4992 46.8498 39.1992 44.4498C42.0992 44.1998 44.8492 43.7498 47.4492 43.1998C47.7492 44.3498 47.9492 45.4498 48.1492 46.4998ZM52.6492 38.6998C51.6492 39.0998 50.5492 39.4498 49.4492 39.7498C48.6492 37.2498 47.6492 34.5998 46.4492 31.9498C47.6492 29.2998 48.6992 26.6998 49.4492 24.1998C56.3492 26.1998 60.4992 29.1998 60.4992 31.9998C60.4992 34.3498 57.5992 36.8498 52.6492 38.6998Z" fill="#0FAFFF"/>
</svg>
