<svg width="51" height="64" viewBox="0 0 51 64" fill="none" xmlns="http://www.w3.org/2000/svg">
<g clip-path="url(#clip0_5_62)">
<path d="M1.96672 58.8487L0.00242387 6.13392C-0.0627207 4.39268 1.26268 2.91707 2.98931 2.80873L47.5125 0.00637579C49.27 -0.10437 50.7837 1.24083 50.8937 3.01076C50.8976 3.07737 50.8997 3.14411 50.8998 3.21099V60.6533C50.8998 62.4266 49.4724 63.8641 47.7115 63.8641C47.6637 63.8641 47.616 63.8631 47.5685 63.8609L5.00999 61.9359C3.35249 61.8611 2.02908 60.5185 1.96672 58.8487Z" fill="#FF4785"/>
<mask id="mask0_5_62" style="mask-type:luminance" maskUnits="userSpaceOnUse" x="0" y="0" width="51" height="64">
<path d="M1.96672 58.8487L0.00242387 6.13392C-0.0627207 4.39268 1.26268 2.91707 2.98931 2.80873L47.5125 0.00637579C49.27 -0.10437 50.7837 1.24083 50.8937 3.01076C50.8976 3.07737 50.8997 3.14411 50.8998 3.21099V60.6533C50.8998 62.4266 49.4724 63.8641 47.7115 63.8641C47.6637 63.8641 47.616 63.8631 47.5685 63.8609L5.00999 61.9359C3.35249 61.8611 2.02908 60.5185 1.96672 58.8487Z" fill="white"/>
</mask>
<g mask="url(#mask0_5_62)">
<path d="M37.5856 7.84993L37.8898 0.483712L44.0042 0L44.2676 7.59634C44.2708 7.68768 44.2481 7.77806 44.202 7.8568C44.1559 7.93554 44.0884 7.99935 44.0075 8.0407C43.9265 8.08205 43.8355 8.0992 43.7452 8.09014C43.6549 8.08108 43.569 8.04618 43.4978 7.98957L41.14 6.11872L38.3484 8.25138C38.2765 8.30638 38.1906 8.33964 38.1006 8.34728C38.0107 8.35491 37.9204 8.33661 37.8404 8.29451C37.7604 8.2524 37.694 8.18824 37.6489 8.10952C37.6037 8.03079 37.5818 7.94075 37.5856 7.84993ZM29.766 24.0712C29.766 25.3205 38.1217 24.7219 39.2433 23.8443C39.2433 15.3373 34.7107 10.867 26.4106 10.867C18.1108 10.867 13.4604 15.4067 13.4604 22.2164C13.4604 34.0769 29.3541 34.304 29.3541 40.7732C29.3541 42.5893 28.4709 43.6675 26.5283 43.6675C23.9973 43.6675 22.9964 42.3654 23.1141 37.9392C23.1141 36.979 13.4604 36.6796 13.1659 37.9392C12.4165 48.6659 19.0525 51.7597 26.6461 51.7597C34.0042 51.7597 39.773 47.81 39.773 40.6599C39.773 27.9481 23.6441 28.2886 23.6441 21.9895C23.6441 19.4359 25.5277 19.0955 26.6463 19.0955C27.8235 19.0955 29.9426 19.3045 29.766 24.0712Z" fill="white"/>
</g>
</g>
<defs>
<clipPath id="clip0_5_62">
<rect width="51" height="64" fill="white"/>
</clipPath>
</defs>
</svg>
