<svg width="64" height="39" viewBox="0 0 64 39" fill="none" xmlns="http://www.w3.org/2000/svg">
<g clip-path="url(#clip0_5_48)">
<path d="M32 0C23.4667 0 18.1333 4.32208 16 12.9662C19.2 8.64416 22.9333 7.02338 27.2 8.1039C29.6343 8.7203 31.3743 10.5095 33.3003 12.4896C36.4378 15.7157 40.0687 19.4494 48 19.4494C56.5333 19.4494 61.8667 15.1273 64 6.48312C60.8 10.8052 57.0667 12.426 52.8 11.3455C50.3657 10.7291 48.6257 8.93986 46.6997 6.95973C43.5622 3.73362 39.9313 0 32 0ZM16 19.4494C7.46667 19.4494 2.13333 23.7714 0 32.4156C3.2 28.0935 6.93333 26.4727 11.2 27.5532C13.6342 28.1697 15.3742 29.9588 17.3002 31.939C20.4377 35.1651 24.0688 38.8987 32 38.8987C40.5333 38.8987 45.8667 34.5766 48 25.9325C44.8 30.2545 41.0667 31.8753 36.8 30.7948C34.3657 30.1784 32.6258 28.3892 30.6998 26.4091C27.5623 23.183 23.9312 19.4494 16 19.4494Z" fill="url(#paint0_linear_5_48)"/>
</g>
<defs>
<linearGradient id="paint0_linear_5_48" x1="-177.792" y1="1244.76" x2="5385.01" y2="4411.05" gradientUnits="userSpaceOnUse">
<stop stop-color="#2298BD"/>
<stop offset="1" stop-color="#0ED7B5"/>
</linearGradient>
<clipPath id="clip0_5_48">
<rect width="64" height="39" fill="white"/>
</clipPath>
</defs>
</svg>
